# xmcd
#
# Track frame offsets:
#	150
#	22292
#	42487
#
# Disc length: 837 seconds
#
# Revision: 1
# Processed by: cddbd v1.5.1PL0 Copyright (c) Steve Scherf et al.
# Submitted via: CDex 1.50Beta5
#
DISCID=25034303
DTITLE=七尾旅人 - ナイト・オブ・ザ・ヘディング・ヘッド
DYEAR=2000
DGENRE=Pop
TTITLE0=エンゼルコール
TTITLE1=振動の国
TTITLE2=雨傘行進曲
EXTD=
EXTT0=
EXTT1=
EXTT2=
PLAYORDER=
